<svg width="494" height="62" viewBox="0 0 494 62" fill="none" xmlns="http://www.w3.org/2000/svg">
<path d="M171.076 34.9308C170.86 34.9308 170.68 34.8588 170.536 34.7148C170.392 34.5468 170.32 34.3548 170.32 34.1388C170.32 34.0188 170.344 33.9108 170.392 33.8148L178.708 15.1668H167.944C167.68 15.1668 167.452 15.0828 167.26 14.9148C167.092 14.7228 167.008 14.4948 167.008 14.2308V10.6308C167.008 10.3668 167.092 10.1508 167.26 9.98279C167.452 9.81478 167.68 9.73078 167.944 9.73078H184.756C185.044 9.73078 185.272 9.81478 185.44 9.98279C185.608 10.1508 185.692 10.3668 185.692 10.6308V13.8348C185.692 14.3388 185.56 14.8788 185.296 15.4548L176.98 34.0668C176.716 34.6428 176.296 34.9308 175.72 34.9308H171.076ZM203.845 35.2908C201.541 35.2908 199.597 34.9428 198.013 34.2468C196.429 33.5508 195.241 32.6028 194.449 31.4028C193.681 30.2028 193.297 28.8588 193.297 27.3708C193.297 26.0988 193.609 24.9588 194.233 23.9508C194.881 22.9188 195.733 22.1148 196.789 21.5388C195.949 20.9868 195.301 20.2908 194.845 19.4508C194.413 18.6108 194.197 17.6508 194.197 16.5708C194.197 15.2028 194.545 13.9788 195.241 12.8988C195.961 11.7948 197.041 10.9308 198.481 10.3068C199.921 9.68279 201.709 9.37078 203.845 9.37078C206.989 9.37078 209.365 10.0308 210.973 11.3508C212.605 12.6708 213.421 14.3988 213.421 16.5348C213.421 18.7188 212.581 20.3868 210.901 21.5388C211.981 22.0668 212.833 22.8468 213.457 23.8788C214.105 24.9108 214.429 26.0868 214.429 27.4068C214.429 28.8948 214.033 30.2388 213.241 31.4388C212.449 32.6148 211.249 33.5508 209.641 34.2468C208.057 34.9428 206.125 35.2908 203.845 35.2908ZM203.845 19.7388C204.901 19.7148 205.765 19.4388 206.437 18.9108C207.109 18.3828 207.445 17.6988 207.445 16.8588C207.445 15.9948 207.109 15.2988 206.437 14.7708C205.765 14.2428 204.901 13.9788 203.845 13.9788C202.789 13.9788 201.925 14.2428 201.253 14.7708C200.581 15.2988 200.245 15.9948 200.245 16.8588C200.245 17.7228 200.581 18.4188 201.253 18.9468C201.925 19.4748 202.789 19.7388 203.845 19.7388ZM203.845 30.6828C205.021 30.6828 205.993 30.3828 206.761 29.7828C207.529 29.1828 207.913 28.3788 207.913 27.3708C207.913 26.3628 207.529 25.5708 206.761 24.9948C205.993 24.3948 205.021 24.0948 203.845 24.0948C202.669 24.0948 201.685 24.3948 200.893 24.9948C200.125 25.5708 199.741 26.3628 199.741 27.3708C199.741 28.3788 200.125 29.1828 200.893 29.7828C201.685 30.3828 202.669 30.6828 203.845 30.6828Z" fill="#EC5863"/>
<path d="M146.227 59.0408C145.53 59.0408 144.932 58.9271 144.434 58.6998C143.942 58.4725 143.557 58.1388 143.279 57.6988C143.007 57.2588 142.857 56.7125 142.828 56.0598C142.82 55.7591 142.817 55.4365 142.817 55.0918C142.817 54.7471 142.82 54.4171 142.828 54.1018C142.857 53.4638 143.011 52.9248 143.29 52.4848C143.568 52.0375 143.957 51.7001 144.456 51.4728C144.954 51.2381 145.545 51.1208 146.227 51.1208C146.711 51.1208 147.158 51.1831 147.569 51.3078C147.979 51.4251 148.339 51.6011 148.647 51.8358C148.955 52.0631 149.193 52.3418 149.362 52.6718C149.538 52.9945 149.629 53.3611 149.637 53.7718C149.644 53.8378 149.622 53.8928 149.571 53.9368C149.527 53.9808 149.472 54.0028 149.406 54.0028H147.921C147.825 54.0028 147.752 53.9845 147.701 53.9478C147.649 53.9038 147.605 53.8268 147.569 53.7168C147.466 53.3281 147.297 53.0641 147.063 52.9248C146.835 52.7781 146.553 52.7048 146.216 52.7048C145.812 52.7048 145.493 52.8185 145.259 53.0458C145.024 53.2658 144.896 53.6361 144.874 54.1568C144.852 54.7581 144.852 55.3741 144.874 56.0048C144.896 56.5255 145.024 56.8995 145.259 57.1268C145.493 57.3468 145.812 57.4568 146.216 57.4568C146.553 57.4568 146.839 57.3835 147.074 57.2368C147.308 57.0901 147.473 56.8261 147.569 56.4448C147.598 56.3348 147.638 56.2615 147.69 56.2248C147.748 56.1808 147.825 56.1588 147.921 56.1588H149.406C149.472 56.1588 149.527 56.1808 149.571 56.2248C149.622 56.2688 149.644 56.3238 149.637 56.3898C149.629 56.8005 149.538 57.1708 149.362 57.5008C149.193 57.8235 148.955 58.1021 148.647 58.3368C148.339 58.5641 147.979 58.7401 147.569 58.8648C147.158 58.9821 146.711 59.0408 146.227 59.0408ZM158.009 59.0408C157.335 59.0408 156.748 58.9308 156.249 58.7108C155.751 58.4908 155.362 58.1608 155.083 57.7208C154.805 57.2735 154.651 56.7161 154.621 56.0488C154.614 55.7335 154.61 55.4181 154.61 55.1028C154.61 54.7875 154.614 54.4685 154.621 54.1458C154.651 53.4858 154.805 52.9321 155.083 52.4848C155.369 52.0301 155.762 51.6891 156.26 51.4618C156.759 51.2345 157.342 51.1208 158.009 51.1208C158.669 51.1208 159.249 51.2345 159.747 51.4618C160.253 51.6891 160.649 52.0301 160.935 52.4848C161.221 52.9321 161.375 53.4858 161.397 54.1458C161.412 54.4685 161.419 54.7875 161.419 55.1028C161.419 55.4181 161.412 55.7335 161.397 56.0488C161.368 56.7161 161.214 57.2735 160.935 57.7208C160.657 58.1608 160.268 58.4908 159.769 58.7108C159.271 58.9308 158.684 59.0408 158.009 59.0408ZM158.009 57.4568C158.398 57.4568 158.713 57.3395 158.955 57.1048C159.205 56.8701 159.337 56.4961 159.351 55.9828C159.366 55.6601 159.373 55.3558 159.373 55.0698C159.373 54.7838 159.366 54.4868 159.351 54.1788C159.337 53.8341 159.271 53.5555 159.153 53.3428C159.043 53.1228 158.889 52.9615 158.691 52.8588C158.493 52.7561 158.266 52.7048 158.009 52.7048C157.76 52.7048 157.536 52.7561 157.338 52.8588C157.14 52.9615 156.983 53.1228 156.865 53.3428C156.748 53.5555 156.682 53.8341 156.667 54.1788C156.66 54.4868 156.656 54.7838 156.656 55.0698C156.656 55.3558 156.66 55.6601 156.667 55.9828C156.689 56.4961 156.821 56.8701 157.063 57.1048C157.305 57.3395 157.621 57.4568 158.009 57.4568ZM169.987 59.0408C169.327 59.0408 168.748 58.9345 168.249 58.7218C167.758 58.5018 167.377 58.1681 167.105 57.7208C166.834 57.2661 166.698 56.6905 166.698 55.9938V51.5058C166.698 51.4251 166.724 51.3591 166.775 51.3078C166.827 51.2565 166.893 51.2308 166.973 51.2308H168.392C168.473 51.2308 168.539 51.2565 168.59 51.3078C168.642 51.3591 168.667 51.4251 168.667 51.5058V55.9828C168.667 56.4595 168.781 56.8188 169.008 57.0608C169.243 57.2955 169.569 57.4128 169.987 57.4128C170.398 57.4128 170.717 57.2955 170.944 57.0608C171.179 56.8188 171.296 56.4595 171.296 55.9828V51.5058C171.296 51.4251 171.322 51.3591 171.373 51.3078C171.432 51.2565 171.498 51.2308 171.571 51.2308H173.001C173.075 51.2308 173.137 51.2565 173.188 51.3078C173.247 51.3591 173.276 51.4251 173.276 51.5058V55.9938C173.276 56.6905 173.141 57.2661 172.869 57.7208C172.598 58.1681 172.217 58.5018 171.725 58.7218C171.234 58.9345 170.655 59.0408 169.987 59.0408ZM179.08 58.9308C178.999 58.9308 178.933 58.9051 178.882 58.8538C178.831 58.8025 178.805 58.7365 178.805 58.6558V51.5058C178.805 51.4251 178.831 51.3591 178.882 51.3078C178.933 51.2565 178.999 51.2308 179.08 51.2308H180.246C180.371 51.2308 180.459 51.2601 180.51 51.3188C180.569 51.3701 180.605 51.4105 180.62 51.4398L183.304 55.6748V51.5058C183.304 51.4251 183.33 51.3591 183.381 51.3078C183.432 51.2565 183.498 51.2308 183.579 51.2308H184.899C184.98 51.2308 185.046 51.2565 185.097 51.3078C185.148 51.3591 185.174 51.4251 185.174 51.5058V58.6558C185.174 58.7291 185.148 58.7951 185.097 58.8538C185.046 58.9051 184.98 58.9308 184.899 58.9308H183.722C183.605 58.9308 183.517 58.9015 183.458 58.8428C183.407 58.7841 183.374 58.7438 183.359 58.7218L180.675 54.6518V58.6558C180.675 58.7365 180.649 58.8025 180.598 58.8538C180.547 58.9051 180.481 58.9308 180.4 58.9308H179.08ZM192.75 58.9308C192.67 58.9308 192.604 58.9051 192.552 58.8538C192.501 58.8025 192.475 58.7365 192.475 58.6558V52.9578H190.517C190.437 52.9578 190.371 52.9321 190.319 52.8808C190.268 52.8221 190.242 52.7561 190.242 52.6828V51.5058C190.242 51.4251 190.268 51.3591 190.319 51.3078C190.371 51.2565 190.437 51.2308 190.517 51.2308H196.435C196.516 51.2308 196.582 51.2565 196.633 51.3078C196.685 51.3591 196.71 51.4251 196.71 51.5058V52.6828C196.71 52.7561 196.685 52.8221 196.633 52.8808C196.582 52.9321 196.516 52.9578 196.435 52.9578H194.477V58.6558C194.477 58.7365 194.452 58.8025 194.4 58.8538C194.349 58.9051 194.283 58.9308 194.202 58.9308H192.75ZM202.055 58.9308C201.974 58.9308 201.908 58.9051 201.857 58.8538C201.806 58.8025 201.78 58.7365 201.78 58.6558V51.5058C201.78 51.4251 201.806 51.3591 201.857 51.3078C201.908 51.2565 201.974 51.2308 202.055 51.2308H205.047C205.993 51.2308 206.737 51.4508 207.28 51.8908C207.83 52.3235 208.105 52.9395 208.105 53.7388C208.105 54.2595 207.977 54.6995 207.72 55.0588C207.471 55.4181 207.141 55.6895 206.73 55.8728L208.248 58.5788C208.27 58.6228 208.281 58.6631 208.281 58.6998C208.281 58.7585 208.255 58.8135 208.204 58.8648C208.16 58.9088 208.105 58.9308 208.039 58.9308H206.587C206.448 58.9308 206.345 58.8978 206.279 58.8318C206.213 58.7585 206.165 58.6925 206.136 58.6338L204.882 56.2138H203.749V58.6558C203.749 58.7365 203.723 58.8025 203.672 58.8538C203.621 58.9051 203.555 58.9308 203.474 58.9308H202.055ZM203.749 54.6628H205.025C205.37 54.6628 205.626 54.5785 205.795 54.4098C205.971 54.2411 206.059 54.0101 206.059 53.7168C206.059 53.4308 205.975 53.1998 205.806 53.0238C205.645 52.8478 205.384 52.7598 205.025 52.7598H203.749V54.6628ZM213.73 58.9308C213.65 58.9308 213.584 58.9051 213.532 58.8538C213.481 58.8025 213.455 58.7365 213.455 58.6558V51.5058C213.455 51.4251 213.481 51.3591 213.532 51.3078C213.584 51.2565 213.65 51.2308 213.73 51.2308H215.204C215.285 51.2308 215.351 51.2565 215.402 51.3078C215.454 51.3591 215.479 51.4251 215.479 51.5058V58.6558C215.479 58.7365 215.454 58.8025 215.402 58.8538C215.351 58.9051 215.285 58.9308 215.204 58.9308H213.73ZM221.367 58.9308C221.286 58.9308 221.22 58.9051 221.169 58.8538C221.117 58.8025 221.092 58.7365 221.092 58.6558V51.5058C221.092 51.4251 221.117 51.3591 221.169 51.3078C221.22 51.2565 221.286 51.2308 221.367 51.2308H226.504C226.584 51.2308 226.65 51.2565 226.702 51.3078C226.753 51.3591 226.779 51.4251 226.779 51.5058V52.5398C226.779 52.6205 226.753 52.6865 226.702 52.7378C226.65 52.7891 226.584 52.8148 226.504 52.8148H222.995V54.2998H226.262C226.342 54.2998 226.408 54.3291 226.46 54.3878C226.511 54.4391 226.537 54.5051 226.537 54.5858V55.5428C226.537 55.6161 226.511 55.6821 226.46 55.7408C226.408 55.7921 226.342 55.8178 226.262 55.8178H222.995V57.3468H226.592C226.672 57.3468 226.738 57.3725 226.79 57.4238C226.841 57.4751 226.867 57.5411 226.867 57.6218V58.6558C226.867 58.7365 226.841 58.8025 226.79 58.8538C226.738 58.9051 226.672 58.9308 226.592 58.9308H221.367ZM235.058 59.0408C234.325 59.0408 233.716 58.9381 233.232 58.7328C232.748 58.5201 232.382 58.2451 232.132 57.9078C231.883 57.5705 231.751 57.2111 231.736 56.8298C231.736 56.7711 231.758 56.7198 231.802 56.6758C231.854 56.6245 231.912 56.5988 231.978 56.5988H233.364C233.467 56.5988 233.544 56.6171 233.595 56.6538C233.654 56.6905 233.705 56.7381 233.749 56.7968C233.808 56.9068 233.889 57.0131 233.991 57.1158C234.101 57.2185 234.241 57.3028 234.409 57.3688C234.585 57.4275 234.802 57.4568 235.058 57.4568C235.484 57.4568 235.803 57.3908 236.015 57.2588C236.235 57.1268 236.345 56.9471 236.345 56.7198C236.345 56.5585 236.287 56.4265 236.169 56.3238C236.052 56.2138 235.861 56.1185 235.597 56.0378C235.341 55.9498 234.996 55.8618 234.563 55.7738C234.006 55.6565 233.529 55.5061 233.133 55.3228C232.745 55.1321 232.448 54.8865 232.242 54.5858C232.037 54.2778 231.934 53.8965 231.934 53.4418C231.934 52.9945 232.059 52.5948 232.308 52.2428C232.565 51.8908 232.921 51.6158 233.375 51.4178C233.83 51.2198 234.369 51.1208 234.992 51.1208C235.498 51.1208 235.942 51.1868 236.323 51.3188C236.712 51.4508 237.038 51.6268 237.302 51.8468C237.566 52.0668 237.764 52.3015 237.896 52.5508C238.036 52.7928 238.109 53.0311 238.116 53.2658C238.116 53.3245 238.094 53.3795 238.05 53.4308C238.006 53.4748 237.951 53.4968 237.885 53.4968H236.433C236.353 53.4968 236.283 53.4821 236.224 53.4528C236.166 53.4235 236.114 53.3758 236.07 53.3098C236.026 53.1485 235.909 53.0091 235.718 52.8918C235.535 52.7671 235.293 52.7048 234.992 52.7048C234.67 52.7048 234.417 52.7635 234.233 52.8808C234.057 52.9908 233.969 53.1631 233.969 53.3978C233.969 53.5445 234.017 53.6728 234.112 53.7828C234.215 53.8928 234.38 53.9881 234.607 54.0688C234.842 54.1495 235.161 54.2338 235.564 54.3218C236.232 54.4465 236.771 54.6041 237.181 54.7948C237.592 54.9781 237.893 55.2201 238.083 55.5208C238.274 55.8141 238.369 56.1845 238.369 56.6318C238.369 57.1305 238.226 57.5631 237.94 57.9298C237.662 58.2891 237.273 58.5641 236.774 58.7548C236.276 58.9455 235.704 59.0408 235.058 59.0408Z" fill="black"/>
<path d="M2.69669 34.9308C2.43269 34.9308 2.20469 34.8468 2.01269 34.6788C1.84469 34.5108 1.76069 34.2948 1.76069 34.0308V31.4748C1.76069 30.7548 2.06069 30.1668 2.66069 29.7108L6.40469 26.0388C8.58869 24.3588 10.2447 23.0508 11.3727 22.1148C12.5007 21.1788 13.3527 20.3268 13.9287 19.5588C14.5047 18.7908 14.7927 18.0588 14.7927 17.3628C14.7927 15.4668 13.8567 14.5188 11.9847 14.5188C11.0007 14.5188 10.2447 14.8188 9.71669 15.4188C9.18869 15.9948 8.84069 16.7268 8.67269 17.6148C8.52869 18.1668 8.12069 18.4428 7.44869 18.4428H2.94869C2.73269 18.4428 2.55269 18.3708 2.40869 18.2268C2.26469 18.0828 2.19269 17.9028 2.19269 17.6868C2.24069 16.1508 2.66069 14.7468 3.45269 13.4748C4.26869 12.1788 5.40869 11.1588 6.87269 10.4148C8.36069 9.64678 10.0647 9.26278 11.9847 9.26278C14.0007 9.26278 15.7287 9.58678 17.1687 10.2348C18.6087 10.8828 19.7007 11.7948 20.4447 12.9708C21.1887 14.1468 21.5607 15.5148 21.5607 17.0748C21.5607 18.7548 21.0327 20.2908 19.9767 21.6828C18.9447 23.0508 17.3607 24.5388 15.2247 26.1468L11.9127 29.4948H21.1647C21.4287 29.4948 21.6447 29.5788 21.8127 29.7468C22.0047 29.9148 22.1007 30.1308 22.1007 30.3948V34.0308C22.1007 34.2948 22.0047 34.5108 21.8127 34.6788C21.6447 34.8468 21.4287 34.9308 21.1647 34.9308H2.69669ZM31.7628 34.9308C31.4988 34.9308 31.2828 34.8468 31.1148 34.6788C30.9468 34.5108 30.8628 34.2948 30.8628 34.0308V17.1108C30.8628 16.8468 30.9468 16.6308 31.1148 16.4628C31.2828 16.2948 31.4988 16.2108 31.7628 16.2108H35.6868C35.9508 16.2108 36.1668 16.2948 36.3348 16.4628C36.5028 16.6308 36.5868 16.8468 36.5868 17.1108V18.3348C37.1388 17.6148 37.8708 17.0268 38.7828 16.5708C39.7188 16.0908 40.7628 15.8508 41.9148 15.8508C44.5548 15.8508 46.3788 16.8828 47.3868 18.9468C47.9628 18.0348 48.7668 17.2908 49.7988 16.7148C50.8308 16.1388 51.9348 15.8508 53.1108 15.8508C55.0788 15.8508 56.6748 16.5228 57.8988 17.8668C59.1468 19.1868 59.7708 21.1668 59.7708 23.8068V34.0308C59.7708 34.2708 59.6868 34.4868 59.5188 34.6788C59.3508 34.8468 59.1348 34.9308 58.8708 34.9308H54.6948C54.4308 34.9308 54.2028 34.8468 54.0108 34.6788C53.8428 34.5108 53.7588 34.2948 53.7588 34.0308V24.0588C53.7588 22.8588 53.5068 21.9948 53.0028 21.4668C52.5228 20.9388 51.8628 20.6748 51.0228 20.6748C50.2548 20.6748 49.6188 20.9508 49.1148 21.5028C48.6108 22.0308 48.3588 22.8828 48.3588 24.0588V34.0308C48.3588 34.2708 48.2748 34.4868 48.1068 34.6788C47.9388 34.8468 47.7228 34.9308 47.4588 34.9308H43.2828C43.0188 34.9308 42.8028 34.8468 42.6348 34.6788C42.4668 34.5108 42.3828 34.2948 42.3828 34.0308V24.0588C42.3828 22.8828 42.1188 22.0308 41.5908 21.5028C41.0868 20.9508 40.4388 20.6748 39.6468 20.6748C38.8788 20.6748 38.2308 20.9508 37.7028 21.5028C37.1988 22.0308 36.9468 22.8708 36.9468 24.0228V34.0308C36.9468 34.2708 36.8628 34.4868 36.6948 34.6788C36.5268 34.8468 36.3108 34.9308 36.0468 34.9308H31.7628Z" fill="#EC5863"/>
<path d="M8.26927 59.0408C7.23527 59.0408 6.42494 58.7878 5.83827 58.2818C5.25894 57.7758 4.96927 57.0131 4.96927 55.9938V51.5058C4.96927 51.4251 4.99494 51.3591 5.04627 51.3078C5.10494 51.2565 5.17094 51.2308 5.24427 51.2308H6.66327C6.74394 51.2308 6.80994 51.2565 6.86127 51.3078C6.91994 51.3591 6.94927 51.4251 6.94927 51.5058V55.9828C6.94927 56.4595 7.05927 56.8188 7.27927 57.0608C7.50661 57.2955 7.83294 57.4128 8.25827 57.4128C8.67627 57.4128 8.99894 57.2918 9.22627 57.0498C9.45361 56.8078 9.56727 56.4521 9.56727 55.9828V51.5058C9.56727 51.4251 9.59294 51.3591 9.64427 51.3078C9.70294 51.2565 9.76894 51.2308 9.84227 51.2308H11.2723C11.3529 51.2308 11.4189 51.2565 11.4703 51.3078C11.5216 51.3591 11.5473 51.4251 11.5473 51.5058V55.9938C11.5473 57.0131 11.2539 57.7758 10.6673 58.2818C10.0879 58.7878 9.28861 59.0408 8.26927 59.0408ZM19.947 59.0408C19.2503 59.0408 18.6526 58.9381 18.154 58.7328C17.6553 58.5275 17.2776 58.2598 17.021 57.9298C16.7716 57.5925 16.6396 57.2258 16.625 56.8298C16.625 56.7711 16.647 56.7198 16.691 56.6758C16.7423 56.6245 16.801 56.5988 16.867 56.5988H18.253C18.341 56.5988 18.4106 56.6171 18.462 56.6538C18.5206 56.6831 18.5793 56.7308 18.638 56.7968C18.7333 56.9875 18.8873 57.1451 19.1 57.2698C19.3126 57.3945 19.595 57.4568 19.947 57.4568C20.365 57.4568 20.684 57.3908 20.904 57.2588C21.124 57.1268 21.234 56.9471 21.234 56.7198C21.234 56.5585 21.1753 56.4265 21.058 56.3238C20.948 56.2211 20.772 56.1295 20.53 56.0488C20.288 55.9681 19.9286 55.8765 19.452 55.7738C18.572 55.5905 17.912 55.3228 17.472 54.9708C17.0393 54.6115 16.823 54.1018 16.823 53.4418C16.823 52.9945 16.9476 52.5948 17.197 52.2428C17.4463 51.8908 17.802 51.6158 18.264 51.4178C18.726 51.2198 19.265 51.1208 19.881 51.1208C20.519 51.1208 21.0726 51.2308 21.542 51.4508C22.0113 51.6708 22.367 51.9495 22.609 52.2868C22.8583 52.6168 22.9903 52.9431 23.005 53.2658C23.005 53.3318 22.983 53.3868 22.939 53.4308C22.895 53.4748 22.84 53.4968 22.774 53.4968H21.322C21.234 53.4968 21.1606 53.4821 21.102 53.4528C21.0506 53.4235 21.003 53.3758 20.959 53.3098C20.915 53.1411 20.794 52.9981 20.596 52.8808C20.4053 52.7635 20.167 52.7048 19.881 52.7048C19.551 52.7048 19.298 52.7635 19.122 52.8808C18.946 52.9981 18.858 53.1705 18.858 53.3978C18.858 53.5518 18.9056 53.6801 19.001 53.7828C19.1036 53.8855 19.265 53.9808 19.485 54.0688C19.7123 54.1495 20.035 54.2338 20.453 54.3218C21.135 54.4465 21.6776 54.6041 22.081 54.7948C22.4916 54.9781 22.7923 55.2201 22.983 55.5208C23.1736 55.8141 23.269 56.1845 23.269 56.6318C23.269 57.1231 23.126 57.5521 22.84 57.9188C22.5613 58.2781 22.169 58.5568 21.663 58.7548C21.1643 58.9455 20.5923 59.0408 19.947 59.0408ZM28.7149 58.9308C28.6416 58.9308 28.5756 58.9051 28.5169 58.8538C28.4656 58.7951 28.4399 58.7291 28.4399 58.6558V51.5058C28.4399 51.4251 28.4656 51.3591 28.5169 51.3078C28.5756 51.2565 28.6416 51.2308 28.7149 51.2308H33.8519C33.9326 51.2308 33.9986 51.2565 34.0499 51.3078C34.1013 51.3591 34.1269 51.4251 34.1269 51.5058V52.5398C34.1269 52.6131 34.1013 52.6791 34.0499 52.7378C33.9986 52.7891 33.9326 52.8148 33.8519 52.8148H30.3429V54.2998H33.6099C33.6906 54.2998 33.7566 54.3291 33.8079 54.3878C33.8593 54.4391 33.8849 54.5051 33.8849 54.5858V55.5428C33.8849 55.6161 33.8593 55.6821 33.8079 55.7408C33.7566 55.7921 33.6906 55.8178 33.6099 55.8178H30.3429V57.3468H33.9399C34.0206 57.3468 34.0866 57.3725 34.1379 57.4238C34.1893 57.4751 34.2149 57.5411 34.2149 57.6218V58.6558C34.2149 58.7291 34.1893 58.7951 34.1379 58.8538C34.0866 58.9051 34.0206 58.9308 33.9399 58.9308H28.7149ZM39.8103 58.9308C39.737 58.9308 39.671 58.9051 39.6123 58.8538C39.561 58.7951 39.5353 58.7291 39.5353 58.6558V51.5058C39.5353 51.4251 39.561 51.3591 39.6123 51.3078C39.671 51.2565 39.737 51.2308 39.8103 51.2308H42.8023C43.763 51.2308 44.511 51.4508 45.0463 51.8908C45.589 52.3235 45.8603 52.9395 45.8603 53.7388C45.8603 54.2521 45.7393 54.6885 45.4973 55.0478C45.2553 55.4071 44.9216 55.6821 44.4963 55.8728L46.0033 58.5788C46.0253 58.6228 46.0363 58.6631 46.0363 58.6998C46.0363 58.7585 46.0106 58.8135 45.9593 58.8648C45.9153 58.9088 45.864 58.9308 45.8053 58.9308H44.3423C44.1296 58.9308 43.9793 58.8318 43.8913 58.6338L42.6373 56.2138H41.5153V58.6558C41.5153 58.7365 41.486 58.8025 41.4273 58.8538C41.376 58.9051 41.31 58.9308 41.2293 58.9308H39.8103ZM42.7803 54.6518C43.1176 54.6518 43.3743 54.5711 43.5503 54.4098C43.7263 54.2411 43.8143 54.0101 43.8143 53.7168C43.8143 53.4235 43.7263 53.1925 43.5503 53.0238C43.3816 52.8478 43.125 52.7598 42.7803 52.7598H41.5153V54.6518H42.7803ZM54.0818 59.0408C53.3851 59.0408 52.7874 58.9381 52.2888 58.7328C51.7901 58.5275 51.4124 58.2598 51.1558 57.9298C50.9064 57.5925 50.7744 57.2258 50.7598 56.8298C50.7598 56.7711 50.7818 56.7198 50.8258 56.6758C50.8771 56.6245 50.9358 56.5988 51.0018 56.5988H52.3878C52.4758 56.5988 52.5454 56.6171 52.5968 56.6538C52.6554 56.6831 52.7141 56.7308 52.7728 56.7968C52.8681 56.9875 53.0221 57.1451 53.2348 57.2698C53.4474 57.3945 53.7298 57.4568 54.0818 57.4568C54.4998 57.4568 54.8188 57.3908 55.0388 57.2588C55.2588 57.1268 55.3688 56.9471 55.3688 56.7198C55.3688 56.5585 55.3101 56.4265 55.1928 56.3238C55.0828 56.2211 54.9068 56.1295 54.6648 56.0488C54.4228 55.9681 54.0634 55.8765 53.5868 55.7738C52.7068 55.5905 52.0468 55.3228 51.6068 54.9708C51.1741 54.6115 50.9578 54.1018 50.9578 53.4418C50.9578 52.9945 51.0824 52.5948 51.3318 52.2428C51.5811 51.8908 51.9368 51.6158 52.3988 51.4178C52.8608 51.2198 53.3998 51.1208 54.0158 51.1208C54.6538 51.1208 55.2074 51.2308 55.6768 51.4508C56.1461 51.6708 56.5018 51.9495 56.7438 52.2868C56.9931 52.6168 57.1251 52.9431 57.1398 53.2658C57.1398 53.3318 57.1178 53.3868 57.0738 53.4308C57.0298 53.4748 56.9748 53.4968 56.9088 53.4968H55.4568C55.3688 53.4968 55.2954 53.4821 55.2368 53.4528C55.1854 53.4235 55.1378 53.3758 55.0938 53.3098C55.0498 53.1411 54.9288 52.9981 54.7308 52.8808C54.5401 52.7635 54.3018 52.7048 54.0158 52.7048C53.6858 52.7048 53.4328 52.7635 53.2568 52.8808C53.0808 52.9981 52.9928 53.1705 52.9928 53.3978C52.9928 53.5518 53.0404 53.6801 53.1358 53.7828C53.2384 53.8855 53.3998 53.9808 53.6198 54.0688C53.8471 54.1495 54.1698 54.2338 54.5878 54.3218C55.2698 54.4465 55.8124 54.6041 56.2158 54.7948C56.6264 54.9781 56.9271 55.2201 57.1178 55.5208C57.3084 55.8141 57.4038 56.1845 57.4038 56.6318C57.4038 57.1231 57.2608 57.5521 56.9748 57.9188C56.6961 58.2781 56.3038 58.5568 55.7978 58.7548C55.2991 58.9455 54.7271 59.0408 54.0818 59.0408Z" fill="black"/>
<path d="M326.27 34.9308C326.03 34.9308 325.814 34.8468 325.622 34.6788C325.454 34.4868 325.37 34.2708 325.37 34.0308V16.8948L320.438 20.6748C320.27 20.8188 320.09 20.8908 319.898 20.8908C319.634 20.8908 319.394 20.7468 319.178 20.4588L317.054 17.6868C316.934 17.4948 316.874 17.3148 316.874 17.1468C316.874 16.8108 317.018 16.5588 317.306 16.3908L325.586 9.98279C325.85 9.81478 326.138 9.73078 326.45 9.73078H330.95C331.214 9.73078 331.43 9.81478 331.598 9.98279C331.766 10.1508 331.85 10.3668 331.85 10.6308V34.0308C331.85 34.2708 331.766 34.4868 331.598 34.6788C331.43 34.8468 331.214 34.9308 330.95 34.9308H326.27ZM351.436 35.2908C348.124 35.2668 345.616 34.3908 343.912 32.6628C342.208 30.9108 341.284 28.6188 341.14 25.7868C341.092 24.4908 341.068 23.3388 341.068 22.3308C341.068 21.2988 341.092 20.1108 341.14 18.7668C341.236 16.9668 341.668 15.3708 342.436 13.9788C343.228 12.5628 344.38 11.4468 345.892 10.6308C347.404 9.79079 349.252 9.37078 351.436 9.37078C354.676 9.39478 357.172 10.2708 358.924 11.9988C360.676 13.7268 361.624 15.9828 361.768 18.7668C361.816 20.1108 361.84 21.2988 361.84 22.3308C361.84 23.3388 361.816 24.4908 361.768 25.7868C361.6 28.6188 360.664 30.9108 358.96 32.6628C357.256 34.3908 354.748 35.2668 351.436 35.2908ZM351.436 30.0708C352.612 30.0708 353.488 29.6868 354.064 28.9188C354.664 28.1268 354.988 27.0228 355.036 25.6068C355.084 24.9108 355.108 23.7948 355.108 22.2588C355.108 20.7228 355.084 19.6308 355.036 18.9828C354.988 17.6148 354.676 16.5348 354.1 15.7428C353.524 14.9508 352.636 14.5428 351.436 14.5188C350.26 14.5428 349.372 14.9508 348.772 15.7428C348.196 16.5348 347.884 17.6148 347.836 18.9828C347.812 19.6308 347.8 20.7228 347.8 22.2588C347.8 23.7948 347.812 24.9108 347.836 25.6068C347.956 28.5828 349.156 30.0708 351.436 30.0708ZM370.367 37.6308C370.175 37.6308 370.007 37.5468 369.863 37.3788C369.719 37.2348 369.659 37.0548 369.683 36.8388L370.799 29.7828C370.847 29.4468 370.979 29.1588 371.195 28.9188C371.411 28.6788 371.711 28.5588 372.095 28.5588H376.307C376.499 28.5588 376.655 28.6308 376.775 28.7748C376.919 28.8948 376.991 29.0508 376.991 29.2428C376.991 29.4108 376.967 29.5428 376.919 29.6388L374.219 36.6228C374.075 36.9348 373.907 37.1748 373.715 37.3428C373.523 37.5348 373.247 37.6308 372.887 37.6308H370.367ZM395.513 35.2908C392.201 35.2668 389.693 34.3908 387.989 32.6628C386.285 30.9108 385.361 28.6188 385.217 25.7868C385.169 24.4908 385.145 23.3388 385.145 22.3308C385.145 21.2988 385.169 20.1108 385.217 18.7668C385.313 16.9668 385.745 15.3708 386.513 13.9788C387.305 12.5628 388.457 11.4468 389.969 10.6308C391.481 9.79079 393.329 9.37078 395.513 9.37078C398.753 9.39478 401.249 10.2708 403.001 11.9988C404.753 13.7268 405.701 15.9828 405.845 18.7668C405.893 20.1108 405.917 21.2988 405.917 22.3308C405.917 23.3388 405.893 24.4908 405.845 25.7868C405.677 28.6188 404.741 30.9108 403.037 32.6628C401.333 34.3908 398.825 35.2668 395.513 35.2908ZM395.513 30.0708C396.689 30.0708 397.565 29.6868 398.141 28.9188C398.741 28.1268 399.065 27.0228 399.113 25.6068C399.161 24.9108 399.185 23.7948 399.185 22.2588C399.185 20.7228 399.161 19.6308 399.113 18.9828C399.065 17.6148 398.753 16.5348 398.177 15.7428C397.601 14.9508 396.713 14.5428 395.513 14.5188C394.337 14.5428 393.449 14.9508 392.849 15.7428C392.273 16.5348 391.961 17.6148 391.913 18.9828C391.889 19.6308 391.877 20.7228 391.877 22.2588C391.877 23.7948 391.889 24.9108 391.913 25.6068C392.033 28.5828 393.233 30.0708 395.513 30.0708ZM425.021 35.2908C421.709 35.2668 419.201 34.3908 417.497 32.6628C415.793 30.9108 414.869 28.6188 414.725 25.7868C414.677 24.4908 414.653 23.3388 414.653 22.3308C414.653 21.2988 414.677 20.1108 414.725 18.7668C414.821 16.9668 415.253 15.3708 416.021 13.9788C416.813 12.5628 417.965 11.4468 419.477 10.6308C420.989 9.79079 422.837 9.37078 425.021 9.37078C428.261 9.39478 430.757 10.2708 432.509 11.9988C434.261 13.7268 435.209 15.9828 435.353 18.7668C435.401 20.1108 435.425 21.2988 435.425 22.3308C435.425 23.3388 435.401 24.4908 435.353 25.7868C435.185 28.6188 434.249 30.9108 432.545 32.6628C430.841 34.3908 428.333 35.2668 425.021 35.2908ZM425.021 30.0708C426.197 30.0708 427.073 29.6868 427.649 28.9188C428.249 28.1268 428.573 27.0228 428.621 25.6068C428.669 24.9108 428.693 23.7948 428.693 22.2588C428.693 20.7228 428.669 19.6308 428.621 18.9828C428.573 17.6148 428.261 16.5348 427.685 15.7428C427.109 14.9508 426.221 14.5428 425.021 14.5188C423.845 14.5428 422.957 14.9508 422.357 15.7428C421.781 16.5348 421.469 17.6148 421.421 18.9828C421.397 19.6308 421.385 20.7228 421.385 22.2588C421.385 23.7948 421.397 24.9108 421.421 25.6068C421.541 28.5828 422.741 30.0708 425.021 30.0708ZM454.53 35.2908C451.218 35.2668 448.71 34.3908 447.006 32.6628C445.302 30.9108 444.378 28.6188 444.234 25.7868C444.186 24.4908 444.162 23.3388 444.162 22.3308C444.162 21.2988 444.186 20.1108 444.234 18.7668C444.33 16.9668 444.762 15.3708 445.53 13.9788C446.322 12.5628 447.474 11.4468 448.986 10.6308C450.498 9.79079 452.346 9.37078 454.53 9.37078C457.77 9.39478 460.266 10.2708 462.018 11.9988C463.77 13.7268 464.718 15.9828 464.862 18.7668C464.91 20.1108 464.934 21.2988 464.934 22.3308C464.934 23.3388 464.91 24.4908 464.862 25.7868C464.694 28.6188 463.758 30.9108 462.054 32.6628C460.35 34.3908 457.842 35.2668 454.53 35.2908ZM454.53 30.0708C455.706 30.0708 456.582 29.6868 457.158 28.9188C457.758 28.1268 458.082 27.0228 458.13 25.6068C458.178 24.9108 458.202 23.7948 458.202 22.2588C458.202 20.7228 458.178 19.6308 458.13 18.9828C458.082 17.6148 457.77 16.5348 457.194 15.7428C456.618 14.9508 455.73 14.5428 454.53 14.5188C453.354 14.5428 452.466 14.9508 451.866 15.7428C451.29 16.5348 450.978 17.6148 450.93 18.9828C450.906 19.6308 450.894 20.7228 450.894 22.2588C450.894 23.7948 450.906 24.9108 450.93 25.6068C451.05 28.5828 452.25 30.0708 454.53 30.0708ZM481.303 33.7428C481.063 33.7428 480.847 33.6588 480.655 33.4908C480.487 33.2988 480.403 33.0828 480.403 32.8428V26.2548H473.995C473.731 26.2548 473.503 26.1708 473.311 26.0028C473.143 25.8348 473.059 25.6188 473.059 25.3548V22.7268C473.059 22.4628 473.143 22.2468 473.311 22.0788C473.503 21.8868 473.731 21.7908 473.995 21.7908H480.403V15.4188C480.403 15.1548 480.487 14.9388 480.655 14.7708C480.847 14.6028 481.063 14.5188 481.303 14.5188H484.255C484.519 14.5188 484.735 14.6028 484.903 14.7708C485.071 14.9388 485.155 15.1548 485.155 15.4188V21.7908H491.527C491.791 21.7908 492.007 21.8868 492.175 22.0788C492.343 22.2468 492.427 22.4628 492.427 22.7268V25.3548C492.427 25.6188 492.343 25.8348 492.175 26.0028C492.007 26.1708 491.791 26.2548 491.527 26.2548H485.155V32.8428C485.155 33.0828 485.071 33.2988 484.903 33.4908C484.735 33.6588 484.519 33.7428 484.255 33.7428H481.303Z" fill="#EC5863"/>
<path d="M326.288 58.9308C326.215 58.9308 326.149 58.9051 326.09 58.8538C326.039 58.7951 326.013 58.7291 326.013 58.6558V51.5058C326.013 51.4251 326.039 51.3591 326.09 51.3078C326.149 51.2565 326.215 51.2308 326.288 51.2308H327.476C327.652 51.2308 327.78 51.3115 327.861 51.4728L329.797 54.9378L331.733 51.4728C331.814 51.3115 331.942 51.2308 332.118 51.2308H333.295C333.376 51.2308 333.442 51.2565 333.493 51.3078C333.552 51.3591 333.581 51.4251 333.581 51.5058V58.6558C333.581 58.7365 333.552 58.8025 333.493 58.8538C333.442 58.9051 333.376 58.9308 333.295 58.9308H331.986C331.905 58.9308 331.836 58.9051 331.777 58.8538C331.726 58.8025 331.7 58.7365 331.7 58.6558V54.5308L330.468 56.8298C330.373 56.9985 330.244 57.0828 330.083 57.0828H329.511C329.416 57.0828 329.339 57.0608 329.28 57.0168C329.221 56.9728 329.17 56.9105 329.126 56.8298L327.883 54.5308V58.6558C327.883 58.7291 327.857 58.7951 327.806 58.8538C327.755 58.9051 327.689 58.9308 327.608 58.9308H326.288ZM339.467 58.9308C339.394 58.9308 339.328 58.9051 339.269 58.8538C339.218 58.7951 339.192 58.7291 339.192 58.6558V51.5058C339.192 51.4251 339.218 51.3591 339.269 51.3078C339.328 51.2565 339.394 51.2308 339.467 51.2308H344.604C344.685 51.2308 344.751 51.2565 344.802 51.3078C344.854 51.3591 344.879 51.4251 344.879 51.5058V52.5398C344.879 52.6131 344.854 52.6791 344.802 52.7378C344.751 52.7891 344.685 52.8148 344.604 52.8148H341.095V54.2998H344.362C344.443 54.2998 344.509 54.3291 344.56 54.3878C344.612 54.4391 344.637 54.5051 344.637 54.5858V55.5428C344.637 55.6161 344.612 55.6821 344.56 55.7408C344.509 55.7921 344.443 55.8178 344.362 55.8178H341.095V57.3468H344.692C344.773 57.3468 344.839 57.3725 344.89 57.4238C344.942 57.4751 344.967 57.5411 344.967 57.6218V58.6558C344.967 58.7291 344.942 58.7951 344.89 58.8538C344.839 58.9051 344.773 58.9308 344.692 58.9308H339.467ZM350.563 58.9308C350.489 58.9308 350.423 58.9051 350.365 58.8538C350.313 58.7951 350.288 58.7291 350.288 58.6558V51.5058C350.288 51.4251 350.313 51.3591 350.365 51.3078C350.423 51.2565 350.489 51.2308 350.563 51.2308H353.423C354.501 51.2308 355.337 51.4875 355.931 52.0008C356.525 52.5141 356.836 53.2585 356.866 54.2338C356.873 54.4465 356.877 54.7288 356.877 55.0808C356.877 55.4328 356.873 55.7115 356.866 55.9168C356.829 56.9361 356.525 57.6951 355.953 58.1938C355.388 58.6851 354.563 58.9308 353.478 58.9308H350.563ZM353.423 57.3468C353.907 57.3468 354.262 57.2331 354.49 57.0058C354.717 56.7711 354.838 56.4008 354.853 55.8948C354.867 55.6821 354.875 55.4071 354.875 55.0698C354.875 54.7325 354.867 54.4611 354.853 54.2558C354.838 53.7645 354.706 53.4015 354.457 53.1668C354.215 52.9321 353.852 52.8148 353.368 52.8148H352.268V57.3468H353.423ZM362.507 58.9308C362.433 58.9308 362.367 58.9051 362.309 58.8538C362.257 58.7951 362.232 58.7291 362.232 58.6558V51.5058C362.232 51.4251 362.257 51.3591 362.309 51.3078C362.367 51.2565 362.433 51.2308 362.507 51.2308H363.981C364.061 51.2308 364.127 51.2565 364.179 51.3078C364.237 51.3591 364.267 51.4251 364.267 51.5058V58.6558C364.267 58.7365 364.237 58.8025 364.179 58.8538C364.127 58.9051 364.061 58.9308 363.981 58.9308H362.507ZM373.025 59.0408C371.976 59.0408 371.155 58.7878 370.561 58.2818C369.974 57.7685 369.663 57.0278 369.626 56.0598C369.619 55.8618 369.615 55.5391 369.615 55.0918C369.615 54.6371 369.619 54.3071 369.626 54.1018C369.663 53.1485 369.982 52.4151 370.583 51.9018C371.184 51.3811 371.998 51.1208 373.025 51.1208C373.67 51.1208 374.25 51.2308 374.763 51.4508C375.276 51.6635 375.68 51.9715 375.973 52.3748C376.274 52.7708 376.428 53.2365 376.435 53.7718V53.7938C376.435 53.8525 376.409 53.9038 376.358 53.9478C376.314 53.9845 376.263 54.0028 376.204 54.0028H374.719C374.624 54.0028 374.55 53.9845 374.499 53.9478C374.448 53.9038 374.404 53.8268 374.367 53.7168C374.264 53.3428 374.103 53.0825 373.883 52.9358C373.663 52.7818 373.373 52.7048 373.014 52.7048C372.149 52.7048 371.701 53.1888 371.672 54.1568C371.665 54.3548 371.661 54.6591 371.661 55.0698C371.661 55.4805 371.665 55.7921 371.672 56.0048C371.701 56.9728 372.149 57.4568 373.014 57.4568C373.373 57.4568 373.667 57.3798 373.894 57.2258C374.121 57.0645 374.279 56.8041 374.367 56.4448C374.396 56.3348 374.437 56.2615 374.488 56.2248C374.539 56.1808 374.616 56.1588 374.719 56.1588H376.204C376.27 56.1588 376.325 56.1808 376.369 56.2248C376.42 56.2688 376.442 56.3238 376.435 56.3898C376.428 56.9251 376.274 57.3945 375.973 57.7978C375.68 58.1938 375.276 58.5018 374.763 58.7218C374.25 58.9345 373.67 59.0408 373.025 59.0408ZM381.125 58.9308C381.066 58.9308 381.011 58.9088 380.96 58.8648C380.916 58.8135 380.894 58.7585 380.894 58.6998C380.894 58.6558 380.898 58.6228 380.905 58.6008L383.49 51.5388C383.512 51.4508 383.56 51.3775 383.633 51.3188C383.706 51.2601 383.802 51.2308 383.919 51.2308H385.547C385.664 51.2308 385.76 51.2601 385.833 51.3188C385.906 51.3775 385.954 51.4508 385.976 51.5388L388.55 58.6008L388.572 58.6998C388.572 58.7585 388.546 58.8135 388.495 58.8648C388.451 58.9088 388.396 58.9308 388.33 58.9308H386.977C386.801 58.9308 386.684 58.8538 386.625 58.6998L386.196 57.5778H383.259L382.841 58.6998C382.782 58.8538 382.661 58.9308 382.478 58.9308H381.125ZM385.756 55.9938L384.733 53.0898L383.71 55.9938H385.756ZM393.784 58.9308C393.711 58.9308 393.645 58.9051 393.586 58.8538C393.535 58.7951 393.509 58.7291 393.509 58.6558V51.5058C393.509 51.4251 393.535 51.3591 393.586 51.3078C393.645 51.2565 393.711 51.2308 393.784 51.2308H395.236C395.317 51.2308 395.383 51.2565 395.434 51.3078C395.485 51.3591 395.511 51.4251 395.511 51.5058V57.2698H398.844C398.925 57.2698 398.991 57.2991 399.042 57.3578C399.093 57.4091 399.119 57.4751 399.119 57.5558V58.6558C399.119 58.7291 399.093 58.7951 399.042 58.8538C398.991 58.9051 398.925 58.9308 398.844 58.9308H393.784ZM410.572 58.9308C410.498 58.9308 410.432 58.9051 410.374 58.8538C410.322 58.7951 410.297 58.7291 410.297 58.6558V51.5058C410.297 51.4251 410.322 51.3591 410.374 51.3078C410.432 51.2565 410.498 51.2308 410.572 51.2308H415.709C415.789 51.2308 415.855 51.2565 415.907 51.3078C415.958 51.3591 415.984 51.4251 415.984 51.5058V52.5398C415.984 52.6131 415.958 52.6791 415.907 52.7378C415.855 52.7891 415.789 52.8148 415.709 52.8148H412.2V54.2998H415.467C415.547 54.2998 415.613 54.3291 415.665 54.3878C415.716 54.4391 415.742 54.5051 415.742 54.5858V55.5428C415.742 55.6161 415.716 55.6821 415.665 55.7408C415.613 55.7921 415.547 55.8178 415.467 55.8178H412.2V57.3468H415.797C415.877 57.3468 415.943 57.3725 415.995 57.4238C416.046 57.4751 416.072 57.5411 416.072 57.6218V58.6558C416.072 58.7291 416.046 58.7951 415.995 58.8538C415.943 58.9051 415.877 58.9308 415.797 58.9308H410.572ZM420.985 58.9308C420.919 58.9308 420.86 58.9088 420.809 58.8648C420.765 58.8135 420.743 58.7585 420.743 58.6998C420.743 58.6485 420.758 58.6045 420.787 58.5678L423.185 55.0038L420.963 51.5938C420.941 51.5498 420.93 51.5058 420.93 51.4618C420.93 51.4031 420.952 51.3518 420.996 51.3078C421.04 51.2565 421.095 51.2308 421.161 51.2308H422.756C422.844 51.2308 422.917 51.2528 422.976 51.2968C423.035 51.3408 423.09 51.3958 423.141 51.4618L424.45 53.4528L425.781 51.4618C425.876 51.3078 426.005 51.2308 426.166 51.2308H427.684C427.743 51.2308 427.794 51.2565 427.838 51.3078C427.889 51.3518 427.915 51.4031 427.915 51.4618C427.915 51.5131 427.9 51.5571 427.871 51.5938L425.638 54.9928L428.058 58.5678C428.08 58.5971 428.091 58.6411 428.091 58.6998C428.091 58.7585 428.069 58.8135 428.025 58.8648C427.981 58.9088 427.926 58.9308 427.86 58.9308H426.221C426.067 58.9308 425.939 58.8575 425.836 58.7108L424.384 56.5988L422.943 58.7108C422.862 58.8575 422.738 58.9308 422.569 58.9308H420.985ZM433.332 58.9308C433.258 58.9308 433.192 58.9051 433.134 58.8538C433.082 58.7951 433.057 58.7291 433.057 58.6558V51.5058C433.057 51.4251 433.082 51.3591 433.134 51.3078C433.192 51.2565 433.258 51.2308 433.332 51.2308H436.412C437.35 51.2308 438.087 51.4471 438.623 51.8798C439.165 52.3125 439.437 52.9431 439.437 53.7718C439.437 54.5931 439.169 55.2128 438.634 55.6308C438.098 56.0415 437.358 56.2468 436.412 56.2468H435.103V58.6558C435.103 58.7365 435.073 58.8025 435.015 58.8538C434.963 58.9051 434.897 58.9308 434.817 58.9308H433.332ZM436.357 54.7288C436.679 54.7288 436.932 54.6481 437.116 54.4868C437.299 54.3181 437.391 54.0725 437.391 53.7498C437.391 53.4491 437.303 53.2108 437.127 53.0348C436.958 52.8515 436.701 52.7598 436.357 52.7598H435.07V54.7288H436.357ZM444.835 58.9308C444.762 58.9308 444.696 58.9051 444.637 58.8538C444.586 58.7951 444.56 58.7291 444.56 58.6558V51.5058C444.56 51.4251 444.586 51.3591 444.637 51.3078C444.696 51.2565 444.762 51.2308 444.835 51.2308H449.972C450.053 51.2308 450.119 51.2565 450.17 51.3078C450.222 51.3591 450.247 51.4251 450.247 51.5058V52.5398C450.247 52.6131 450.222 52.6791 450.17 52.7378C450.119 52.7891 450.053 52.8148 449.972 52.8148H446.463V54.2998H449.73C449.811 54.2998 449.877 54.3291 449.928 54.3878C449.98 54.4391 450.005 54.5051 450.005 54.5858V55.5428C450.005 55.6161 449.98 55.6821 449.928 55.7408C449.877 55.7921 449.811 55.8178 449.73 55.8178H446.463V57.3468H450.06C450.141 57.3468 450.207 57.3725 450.258 57.4238C450.31 57.4751 450.335 57.5411 450.335 57.6218V58.6558C450.335 58.7291 450.31 58.7951 450.258 58.8538C450.207 58.9051 450.141 58.9308 450.06 58.9308H444.835ZM455.931 58.9308C455.857 58.9308 455.791 58.9051 455.733 58.8538C455.681 58.7951 455.656 58.7291 455.656 58.6558V51.5058C455.656 51.4251 455.681 51.3591 455.733 51.3078C455.791 51.2565 455.857 51.2308 455.931 51.2308H458.923C459.883 51.2308 460.631 51.4508 461.167 51.8908C461.709 52.3235 461.981 52.9395 461.981 53.7388C461.981 54.2521 461.86 54.6885 461.618 55.0478C461.376 55.4071 461.042 55.6821 460.617 55.8728L462.124 58.5788C462.146 58.6228 462.157 58.6631 462.157 58.6998C462.157 58.7585 462.131 58.8135 462.08 58.8648C462.036 58.9088 461.984 58.9308 461.926 58.9308H460.463C460.25 58.9308 460.1 58.8318 460.012 58.6338L458.758 56.2138H457.636V58.6558C457.636 58.7365 457.606 58.8025 457.548 58.8538C457.496 58.9051 457.43 58.9308 457.35 58.9308H455.931ZM458.901 54.6518C459.238 54.6518 459.495 54.5711 459.671 54.4098C459.847 54.2411 459.935 54.0101 459.935 53.7168C459.935 53.4235 459.847 53.1925 459.671 53.0238C459.502 52.8478 459.245 52.7598 458.901 52.7598H457.636V54.6518H458.901ZM469.225 58.9308C469.152 58.9308 469.086 58.9051 469.027 58.8538C468.976 58.7951 468.95 58.7291 468.95 58.6558V52.9578H466.992C466.919 52.9578 466.853 52.9321 466.794 52.8808C466.743 52.8221 466.717 52.7561 466.717 52.6828V51.5058C466.717 51.4251 466.743 51.3591 466.794 51.3078C466.853 51.2565 466.919 51.2308 466.992 51.2308H472.91C472.991 51.2308 473.057 51.2565 473.108 51.3078C473.159 51.3591 473.185 51.4251 473.185 51.5058V52.6828C473.185 52.7635 473.159 52.8295 473.108 52.8808C473.057 52.9321 472.991 52.9578 472.91 52.9578H470.952V58.6558C470.952 58.7291 470.926 58.7951 470.875 58.8538C470.824 58.9051 470.758 58.9308 470.677 58.9308H469.225ZM481.104 59.0408C480.407 59.0408 479.81 58.9381 479.311 58.7328C478.812 58.5275 478.435 58.2598 478.178 57.9298C477.929 57.5925 477.797 57.2258 477.782 56.8298C477.782 56.7711 477.804 56.7198 477.848 56.6758C477.899 56.6245 477.958 56.5988 478.024 56.5988H479.41C479.498 56.5988 479.568 56.6171 479.619 56.6538C479.678 56.6831 479.736 56.7308 479.795 56.7968C479.89 56.9875 480.044 57.1451 480.257 57.2698C480.47 57.3945 480.752 57.4568 481.104 57.4568C481.522 57.4568 481.841 57.3908 482.061 57.2588C482.281 57.1268 482.391 56.9471 482.391 56.7198C482.391 56.5585 482.332 56.4265 482.215 56.3238C482.105 56.2211 481.929 56.1295 481.687 56.0488C481.445 55.9681 481.086 55.8765 480.609 55.7738C479.729 55.5905 479.069 55.3228 478.629 54.9708C478.196 54.6115 477.98 54.1018 477.98 53.4418C477.98 52.9945 478.105 52.5948 478.354 52.2428C478.603 51.8908 478.959 51.6158 479.421 51.4178C479.883 51.2198 480.422 51.1208 481.038 51.1208C481.676 51.1208 482.23 51.2308 482.699 51.4508C483.168 51.6708 483.524 51.9495 483.766 52.2868C484.015 52.6168 484.147 52.9431 484.162 53.2658C484.162 53.3318 484.14 53.3868 484.096 53.4308C484.052 53.4748 483.997 53.4968 483.931 53.4968H482.479C482.391 53.4968 482.318 53.4821 482.259 53.4528C482.208 53.4235 482.16 53.3758 482.116 53.3098C482.072 53.1411 481.951 52.9981 481.753 52.8808C481.562 52.7635 481.324 52.7048 481.038 52.7048C480.708 52.7048 480.455 52.7635 480.279 52.8808C480.103 52.9981 480.015 53.1705 480.015 53.3978C480.015 53.5518 480.063 53.6801 480.158 53.7828C480.261 53.8855 480.422 53.9808 480.642 54.0688C480.869 54.1495 481.192 54.2338 481.61 54.3218C482.292 54.4465 482.835 54.6041 483.238 54.7948C483.649 54.9781 483.949 55.2201 484.14 55.5208C484.331 55.8141 484.426 56.1845 484.426 56.6318C484.426 57.1231 484.283 57.5521 483.997 57.9188C483.718 58.2781 483.326 58.5568 482.82 58.7548C482.321 58.9455 481.749 59.0408 481.104 59.0408Z" fill="black"/>
</svg>
