<svg width="65" height="73" viewBox="0 0 65 73" fill="none" xmlns="http://www.w3.org/2000/svg">
<path d="M64.8108 25.6102H43.4381V72.4102H36.3138V50.8102H29.1895V72.4102H22.0653V25.6102H0.69252V18.4102H64.8108V25.6102ZM32.7517 0.410156C34.6411 0.410156 36.4532 1.16873 37.7893 2.51899C39.1253 3.86925 39.8759 5.7006 39.8759 7.61016C39.8759 9.51971 39.1253 11.3511 37.7893 12.7013C36.4532 14.0516 34.6411 14.8102 32.7517 14.8102C30.8622 14.8102 29.0501 14.0516 27.7141 12.7013C26.378 11.3511 25.6274 9.51971 25.6274 7.61016C25.6274 3.61416 28.7977 0.410156 32.7517 0.410156Z" fill="#EC5863"/>
</svg>
