<svg width="68" height="73" viewBox="0 0 68 73" fill="none" xmlns="http://www.w3.org/2000/svg">
<path d="M34.2256 0.638428C28.4032 0.638428 24.9181 1.52458 22.7028 2.6295C21.5938 3.18335 20.8064 3.76489 20.2768 4.36027C19.7445 4.95566 19.409 5.83074 19.409 5.83074C19.322 6.05314 19.2643 6.28584 19.2371 6.52304L17.7621 25.4757C17.7427 25.592 17.7815 25.7803 17.7621 25.9077L17.5902 27.8129C17.574 27.9851 17.574 28.1585 17.5902 28.3307C17.5902 37.4692 25.0761 44.9461 34.2256 44.9461C43.3751 44.9461 50.8611 37.4692 50.8611 28.3307V27.8987C50.8615 27.8701 50.8615 27.8415 50.8611 27.8129L49.2142 6.52304C49.187 6.28584 49.1292 6.05314 49.0423 5.83074C49.0423 5.83074 48.7068 4.95566 48.1745 4.36027C47.6449 3.76212 46.8575 3.18058 45.7485 2.6295C43.5332 1.52181 40.0481 0.638428 34.2256 0.638428ZM34.2256 44.9461C15.9266 44.9461 0.954712 53.5474 0.954712 61.3012V72.6384H67.4966V61.3012C67.4966 53.935 53.9608 45.8212 36.9123 45.032C36.018 44.973 35.1219 44.9444 34.2256 44.9461ZM34.2256 6.17689C39.4935 6.17689 42.1247 7.00766 43.2365 7.5615C43.608 7.74704 43.6524 7.81904 43.7578 7.90766L44.8834 22.1C42.3327 22.255 38.8558 22.7923 34.2256 22.7923C29.5954 22.7923 26.1214 22.255 23.5679 22.1L24.6935 7.90766C24.7961 7.81904 24.8432 7.74704 25.2148 7.5615C26.3266 7.00766 28.9577 6.17689 34.2256 6.17689ZM31.9715 8.94612V12.236H28.6805V16.736H31.9743V20.023H36.477V16.7332H39.7708V12.236H36.477V8.94612H31.9743H31.9715ZM25.9079 51.1769L33.014 67.1H6.49987V61.3012C6.49987 59.2381 13.5699 53.1957 25.9079 51.1769ZM42.5434 51.1769C54.8813 53.1984 61.9514 59.2381 61.9514 61.3012V67.1H35.4373L42.5434 51.1769Z" fill="#EC5863"/>
</svg>
