<svg width="88" height="73" viewBox="0 0 88 73" fill="none" xmlns="http://www.w3.org/2000/svg">
<path d="M24.2206 0.967773C17.8606 0.967773 11.7612 3.4698 7.26401 7.92344C2.76684 12.3771 0.240356 18.4175 0.240356 24.7159C0.240356 26.8748 0.632761 29.0337 1.19957 31.1927H18.9886L24.5258 16.6415C25.8338 13.1873 30.9787 12.8418 32.6355 16.6415L41.6608 39.8283L44.2332 33.697C44.8 32.2721 46.326 31.1927 48.2009 31.1927H86.482C87.0489 29.0337 87.4413 26.8748 87.4413 24.7159C87.4413 18.4175 84.9148 12.3771 80.4176 7.92344C75.9204 3.4698 69.821 0.967773 63.461 0.967773C55.3513 0.967773 48.2009 4.98337 43.8408 11.0715C39.4808 4.98337 32.3303 0.967773 24.2206 0.967773ZM4.6004 37.6694C3.44405 37.6694 2.33505 38.1243 1.51738 38.9341C0.699717 39.7438 0.240356 40.8421 0.240356 41.9873C0.240356 43.1324 0.699717 44.2307 1.51738 45.0404C2.33505 45.8502 3.44405 46.3051 4.6004 46.3051H15.2389L39.4808 70.0532C43.8408 73.9393 43.8408 73.9393 48.2009 70.0532L72.4427 46.3051H83.0812C84.2376 46.3051 85.3466 45.8502 86.1642 45.0404C86.9819 44.2307 87.4413 43.1324 87.4413 41.9873C87.4413 40.8421 86.9819 39.7438 86.1642 38.9341C85.3466 38.1243 84.2376 37.6694 83.0812 37.6694H49.9449L45.89 47.6005C44.146 51.9615 39.132 51.357 37.5187 47.73L28.5806 24.7159L24.395 34.7765C23.741 36.4172 22.2586 37.6694 20.2966 37.6694H4.6004Z" fill="#EC5863"/>
</svg>
